<svg version="1.2" xmlns="http://www.w3.org/2000/svg" viewBox="0 0 1914 449" width="1914" height="449">
	<title>Untitled-1</title>
	<defs>
		<filter x="-50%" y="-50%" width="200%" height="200%" id="f1" ><feDropShadow dx="15.426902632476946" dy="18.385066634855473" stdDeviation="0" flood-color="#000000" flood-opacity=".8"/></filter>
	</defs>
	<style>
		.s0 { filter: url(#f1);fill: #25d366;stroke: #000000;stroke-width: 0 } 
		.s1 { fill: #2a2c36 } 
		.s2 { fill: #ffffff } 
	</style>
	<rect id="Rectangle 1" class="s0" x="20" y="35" width="1873" height="378" rx=".5"></rect>
	<path id="WA-INBOX" class="s1" aria-label="WA-INBOX"  d="m316.9 312v-188.1h30.1v172.4h30.1v-78.4h30.1v78.4h30v-172.4h30.1v188.1h-15v15.7h-15.1v15.6h-30v-15.6h-30.1v15.6h-30.1v-15.6h-15.1v-15.7zm198.8-109.7v47h90.3v-47h-15.1v-15.7h-15v-15.7h-30.1v15.7h-15.1v15.7zm0 78.3v62.7h-30v-156.7h15v-15.7h15v-15.7h15.1v-15.6h15v-15.7h30.1v15.7h15.1v15.6h15v15.7h15.1v15.7h15v156.7h-30.1v-62.7zm153.7-62.7h120.3v31.4h-120.3zm274 125.4h-90.3v-31.4h30.1v-156.7h-30.1v-31.4h90.3v31.4h-30.1v156.7h30.1zm93.4-125.4h-15v125.4h-30.1v-219.4h30.1v47h15v15.7h15.1v15.7h15v15.6h15.1v15.7h15v15.7h15.1v-125.4h30.1v219.4h-30.1v-47h-15.1v-15.7h-15v-15.6h-15.1v-15.7h-15v-15.7h-15.1zm153.7-62.7v62.7h75.2v-15.7h15v-31.3h-15v-15.7zm90.3 188.1h-120.4v-219.4h120.4v15.6h15v15.7h15.1v62.7h-15.1v31.4h15.1v62.7h-15.1v15.6h-15zm-90.3-94v62.7h75.2v-15.7h15.1v-31.3h-15.1v-15.7zm244-78.4v-15.7h-60.2v15.7h-15.1v125.4h15.1v15.7h60.2v-15.7h15v-125.4zm-90.3-31.3h15.1v-15.7h90.3v15.7h15v15.6h15v156.8h-15v15.7h-15v15.6h-90.3v-15.6h-15.1v-15.7h-15v-156.8h15zm198.8 156.8h-15v47h-30.1v-62.7h15v-15.7h15.1v-15.6h15v-31.4h-15v-15.7h-15.1v-15.6h-15v-62.7h30.1v47h15v15.7h15v15.6h30.1v-15.6h15.1v-15.7h15v-47h30.1v62.7h-15v15.6h-15.1v15.7h-15v31.4h15v15.6h15.1v15.7h15v62.7h-30.1v-47h-15v-15.7h-15.1v-15.7h-30.1v15.7h-15z"/>
	<path id="WA-INBOX" class="s2" aria-label="WA-INBOX"  d="m301.9 292v-188.1h30.1v172.4h30.1v-78.4h30.1v78.4h30v-172.4h30.1v188.1h-15v15.7h-15.1v15.6h-30v-15.6h-30.1v15.6h-30.1v-15.6h-15.1v-15.7zm198.8-109.7v47h90.3v-47h-15.1v-15.7h-15v-15.7h-30.1v15.7h-15.1v15.7zm0 78.3v62.7h-30v-156.7h15v-15.7h15v-15.7h15.1v-15.6h15v-15.7h30.1v15.7h15.1v15.6h15v15.7h15.1v15.7h15v156.7h-30.1v-62.7zm153.7-62.7h120.3v31.4h-120.3zm274 125.4h-90.3v-31.4h30.1v-156.7h-30.1v-31.4h90.3v31.4h-30.1v156.7h30.1zm93.4-125.4h-15v125.4h-30.1v-219.4h30.1v47h15v15.7h15.1v15.7h15v15.6h15.1v15.7h15v15.7h15.1v-125.4h30.1v219.4h-30.1v-47h-15.1v-15.7h-15v-15.6h-15.1v-15.7h-15v-15.7h-15.1zm153.7-62.7v62.7h75.2v-15.7h15v-31.3h-15v-15.7zm90.3 188.1h-120.4v-219.4h120.4v15.6h15v15.7h15.1v62.7h-15.1v31.4h15.1v62.7h-15.1v15.6h-15zm-90.3-94v62.7h75.2v-15.7h15.1v-31.3h-15.1v-15.7zm244-78.4v-15.7h-60.2v15.7h-15.1v125.4h15.1v15.7h60.2v-15.7h15v-125.4zm-90.3-31.3h15.1v-15.7h90.3v15.7h15v15.6h15v156.8h-15v15.7h-15v15.6h-90.3v-15.6h-15.1v-15.7h-15v-156.8h15zm198.8 156.8h-15v47h-30.1v-62.7h15v-15.7h15.1v-15.6h15v-31.4h-15v-15.7h-15.1v-15.6h-15v-62.7h30.1v47h15v15.7h15v15.6h30.1v-15.6h15.1v-15.7h15v-47h30.1v62.7h-15v15.6h-15.1v15.7h-15v31.4h15v15.6h15.1v15.7h15v62.7h-30.1v-47h-15v-15.7h-15.1v-15.7h-30.1v15.7h-15z"/>
</svg>